<?xml version="1.0" standalone="no"?>
<!DOCTYPE svg PUBLIC "-//W3C//DTD SVG 20010904//EN"
 "http://www.w3.org/TR/2001/REC-SVG-20010904/DTD/svg10.dtd">
<svg version="1.0" xmlns="http://www.w3.org/2000/svg"
 width="285.000000pt" height="285.000000pt" viewBox="0 0 285.000000 285.000000"
 preserveAspectRatio="xMidYMid meet">
<metadata>
Created by potrace 1.11, written by Peter Selinger 2001-2013
</metadata>
<g transform="translate(0.000000,285.000000) scale(0.100000,-0.100000)"
fill="#000000" stroke="none">
<path d="M48 2833 c-14 -9 -31 -27 -37 -40 -15 -33 -15 -2687 -1 -2730 6 -16
24 -37 39 -46 27 -16 127 -17 1376 -17 1239 0 1349 1 1375 17 16 9 33 27 39
40 8 17 11 423 11 1369 0 1238 -1 1348 -17 1374 -9 16 -27 33 -40 39 -17 8
-423 11 -1371 11 -1237 -1 -1349 -2 -1374 -17z"/>
</g>
</svg>
